{
	"animations":[{
		"samplers":[{
			"input":5,
			"interpolation":"LINEAR",
			"output":6
		}],
		"channels":[{
			"sampler":0,
			"target":{
				"node":0,
				"path":"weights"
			}
		}]
	}],
	"asset":{
		"version":"2.0",
		"generator":"Maxon Cinema 4D 2024.5.1 (#200000219)"
	},
	"scenes":[{
		"nodes":[0]
	}],
	"nodes":[{
		"name":"mesh_352",
		"mesh":0,
		"translation":[-4.032503128051758,
		-4.168859004974365,
		7.807571887969971],
		"children":[1],
		"rotation":[-5.428713123478701e-8,
		-0.10755812376737595,
		-4.691972321779758e-8,
		0.9941987991333008],
		"scale":[0.9090909361839294,
		0.909091055393219,
		0.9090909361839294]
	},
	{
		"name":"Poses"
	}],
	"meshes":[{
		"name":"mesh_352",
		"primitives":[{
			"targets":[{
				"POSITION":4
			}],
			"attributes":{
				"POSITION":1,
				"NORMAL":2,
				"TEXCOORD_0":3
			},
			"indices":0,
			"material":0
		}],
		"extras":{
			"targetNames":["Target 0"]
		},
		"weights":[0.7045427124674728]
	}],
	"accessors":[{
		"bufferView":0,
		"type":"SCALAR",
		"componentType":5123,
		"count":348,
		"byteOffset":0,
		"min":[0],
		"max":[347]
	},
	{
		"bufferView":1,
		"type":"VEC3",
		"componentType":5126,
		"count":348,
		"byteOffset":0,
		"min":[-0.5041475296020508,
		-0.27843761444091799,
		-0.2711358070373535],
		"max":[0.8047714233398438,
		0.3865170478820801,
		0.269439697265625]
	},
	{
		"bufferView":1,
		"type":"VEC3",
		"componentType":5126,
		"count":348,
		"byteOffset":12,
		"min":[-0.975313127040863,
		-0.981270432472229,
		-1.0],
		"max":[0.968110978603363,
		0.981270432472229,
		1.0]
	},
	{
		"bufferView":1,
		"type":"VEC2",
		"componentType":5126,
		"count":348,
		"byteOffset":24,
		"min":[0.626190185546875,
		0.8517303466796875],
		"max":[0.790435791015625,
		0.9948577880859375]
	},
	{
		"bufferView":2,
		"type":"VEC3",
		"componentType":5126,
		"count":348,
		"byteOffset":0,
		"min":[-0.027591705322265626,
		-2.384185791015625e-7,
		0.0],
		"max":[0.027590274810791017,
		0.0,
		0.3213233947753906]
	},
	{
		"bufferView":3,
		"type":"SCALAR",
		"componentType":5126,
		"count":402,
		"byteOffset":0,
		"min":[0.0],
		"max":[16.700000762939454]
	},
	{
		"bufferView":3,
		"type":"SCALAR",
		"componentType":5126,
		"count":402,
		"byteOffset":1608,
		"min":[0.0],
		"max":[1.0]
	}],
	"bufferViews":[{
		"buffer":0,
		"byteOffset":0,
		"byteLength":696,
		"target":34963
	},
	{
		"buffer":0,
		"byteOffset":696,
		"byteLength":11136,
		"target":34962,
		"byteStride":32
	},
	{
		"buffer":0,
		"byteOffset":11832,
		"byteLength":4176,
		"target":34962
	},
	{
		"buffer":1,
		"byteOffset":0,
		"byteLength":3216
	}],
	"buffers":[{
		"uri":"data:application/octet-stream;base64,",
		"byteLength":16008
	},
	{
		"uri":"data:application/octet-stream;base64,",
		"byteLength":3216
	}],
	"images":[{
		"uri":"data:image/png;base64,"
	}],
	"samplers":[{
		"magFilter":9729,
		"minFilter":9729,
		"wrapS":10497,
		"wrapT":10497
	}],
	"textures":[{
		"sampler":0,
		"source":0
	}],
	"materials":[{
		"pbrMetallicRoughness":{
			"baseColorTexture":{
				"index":0
			},
			"baseColorFactor":[1.0,
			1.0,
			1.0,
			1.0],
			"metallicFactor":0.0,
			"roughnessFactor":1.0
		},
		"emissiveFactor":[0.0,
		0.0,
		0.0],
		"alphaMode":"OPAQUE",
		"doubleSided":false,
		"name":"Texture"
	}]
}